<svg width="177" height="55" viewBox="0 0 177 55" fill="none" xmlns="http://www.w3.org/2000/svg">
<rect width="177" height="55" rx="27.5" fill="#212121"/>
<path fill-rule="evenodd" clip-rule="evenodd" d="M65.3109 21.6333L65.2399 21.4319C65.1926 21.2976 65.1383 21.143 65.0769 20.9679C65.0156 20.7928 64.9613 20.6381 64.9139 20.5038L64.8429 20.3024H62.9903L62.5224 21.6333H61.9124L63.6294 16.983H64.2039L65.9209 21.6333H65.3109ZM63.8908 17.7339L63.8166 17.9434C63.7671 18.083 63.7063 18.256 63.6342 18.4622L63.418 19.081C63.3459 19.2872 63.2851 19.4602 63.2356 19.5998L63.1614 19.8093H64.6719L63.9425 17.7339H63.8908ZM66.7595 21.6333V18.1593H67.2888V18.7072H67.3405C67.4287 18.516 67.5583 18.3666 67.7294 18.2592C67.9004 18.1518 68.1194 18.0981 68.3862 18.0981C68.7778 18.0981 69.0785 18.2093 69.2883 18.4316C69.4981 18.654 69.603 18.9714 69.603 19.3839V21.6333H69.0478V19.5193C69.0478 19.2056 68.9806 18.9736 68.8461 18.8232C68.7116 18.6728 68.5056 18.5976 68.228 18.5976C67.9505 18.5976 67.7289 18.6846 67.5632 18.8586C67.3975 19.0327 67.3147 19.2722 67.3147 19.5773V21.6333H66.7595ZM71.9972 21.6946C71.5518 21.6946 71.1968 21.5313 70.9321 21.2047C70.6675 20.8782 70.5351 20.442 70.5351 19.8963C70.5351 19.3506 70.6686 18.9145 70.9354 18.5879C71.2022 18.2614 71.5561 18.0981 71.9972 18.0981C72.2404 18.0981 72.4582 18.1518 72.6508 18.2592C72.8434 18.3666 72.9891 18.516 73.0881 18.7072H73.1365V16.78H73.6917V21.6333H73.1623V21.079H73.1107C73.001 21.2724 72.8482 21.4233 72.6524 21.5318C72.4566 21.6403 72.2382 21.6946 71.9972 21.6946ZM72.1263 18.5976C71.81 18.5976 71.5615 18.7131 71.3808 18.944C71.2 19.175 71.1096 19.4924 71.1096 19.8963C71.1096 20.3024 71.1995 20.6203 71.3791 20.8502C71.5588 21.0801 71.8079 21.1951 72.1263 21.1951C72.4426 21.1951 72.6922 21.079 72.8751 20.847C73.058 20.615 73.1494 20.2981 73.1494 19.8963C73.1494 19.4989 73.0575 19.183 72.8735 18.9489C72.6895 18.7147 72.4405 18.5976 72.1263 18.5976ZM74.8627 21.6333V18.1593H75.392V18.6749H75.4436C75.4953 18.5052 75.6115 18.3666 75.7922 18.2592C75.9729 18.1518 76.1784 18.0981 76.4087 18.0981C76.4538 18.0981 76.5028 18.0997 76.5555 18.1029C76.6082 18.1061 76.6518 18.1099 76.6862 18.1142V18.6685C76.6647 18.662 76.6142 18.6551 76.5345 18.6475C76.4549 18.64 76.3871 18.6363 76.3312 18.6363C76.0665 18.6363 75.8482 18.7158 75.676 18.8747C75.5039 19.0337 75.4178 19.2357 75.4178 19.4806V21.6333H74.8627ZM78.8061 21.6946C78.3113 21.6946 77.9202 21.534 77.6329 21.2128C77.3457 20.8916 77.2021 20.4528 77.2021 19.8963C77.2021 19.3377 77.3457 18.8984 77.6329 18.5783C77.9202 18.2581 78.3113 18.0981 78.8061 18.0981C79.301 18.0981 79.6921 18.2581 79.9793 18.5783C80.2666 18.8984 80.4102 19.3377 80.4102 19.8963C80.4102 20.4528 80.2666 20.8916 79.9793 21.2128C79.6921 21.534 79.301 21.6946 78.8061 21.6946ZM78.8061 21.1951C79.1354 21.1951 79.3892 21.0812 79.5678 20.8535C79.7464 20.6257 79.8357 20.3067 79.8357 19.8963C79.8357 19.4838 79.7464 19.1642 79.5678 18.9376C79.3892 18.7109 79.1354 18.5976 78.8061 18.5976C78.4769 18.5976 78.223 18.7109 78.0444 18.9376C77.8659 19.1642 77.7766 19.4838 77.7766 19.8963C77.7766 20.3067 77.8659 20.6257 78.0444 20.8535C78.223 21.0812 78.4769 21.1951 78.8061 21.1951ZM81.3876 21.6333V18.1593H81.9427V21.6333H81.3876ZM81.6652 17.4536C81.5597 17.4536 81.4688 17.4154 81.3924 17.3391C81.316 17.2629 81.2779 17.1721 81.2779 17.0668C81.2779 16.9594 81.316 16.8681 81.3924 16.7929C81.4688 16.7177 81.5597 16.6801 81.6652 16.6801C81.7727 16.6801 81.8642 16.7177 81.9395 16.7929C82.0148 16.8681 82.0525 16.9594 82.0525 17.0668C82.0525 17.1721 82.0148 17.2629 81.9395 17.3391C81.8642 17.4154 81.7727 17.4536 81.6652 17.4536ZM84.3822 21.6946C83.9368 21.6946 83.5817 21.5313 83.3171 21.2047C83.0524 20.8782 82.9201 20.442 82.9201 19.8963C82.9201 19.3506 83.0535 18.9145 83.3203 18.5879C83.5871 18.2614 83.9411 18.0981 84.3822 18.0981C84.6253 18.0981 84.8432 18.1518 85.0357 18.2592C85.2283 18.3666 85.3741 18.516 85.4731 18.7072H85.5215V16.78H86.0766V21.6333H85.5473V21.079H85.4957C85.3859 21.2724 85.2332 21.4233 85.0373 21.5318C84.8415 21.6403 84.6231 21.6946 84.3822 21.6946ZM84.5113 18.5976C84.195 18.5976 83.9464 18.7131 83.7657 18.944C83.585 19.175 83.4946 19.4924 83.4946 19.8963C83.4946 20.3024 83.5844 20.6203 83.7641 20.8502C83.9438 21.0801 84.1928 21.1951 84.5113 21.1951C84.8276 21.1951 85.0772 21.079 85.26 20.847C85.4429 20.615 85.5344 20.2981 85.5344 19.8963C85.5344 19.4989 85.4424 19.183 85.2584 18.9489C85.0745 18.7147 84.8254 18.5976 84.5113 18.5976ZM92.3046 21.6333L92.2336 21.4319C92.1862 21.2976 92.1319 21.143 92.0706 20.9679C92.0093 20.7928 91.9549 20.6381 91.9076 20.5038L91.8366 20.3024H89.984L89.516 21.6333H88.906L90.623 16.983H91.1975L92.9146 21.6333H92.3046ZM90.8845 17.7339L90.8102 17.9434C90.7608 18.083 90.7 18.256 90.6279 18.4622L90.4116 19.081C90.3396 19.2872 90.2788 19.4602 90.2293 19.5998L90.1551 19.8093H91.6655L90.9361 17.7339H90.8845ZM95.4476 18.0981C95.8909 18.0981 96.2453 18.2614 96.5111 18.5879C96.7768 18.9145 96.9097 19.3506 96.9097 19.8963C96.9097 20.4399 96.7768 20.8755 96.5111 21.2031C96.2453 21.5308 95.8909 21.6946 95.4476 21.6946C95.2002 21.6946 94.9807 21.643 94.7892 21.5399C94.5977 21.4368 94.4546 21.2939 94.3599 21.1113H94.3083V22.7935H93.7532V18.1593H94.2825V18.7394H94.3341C94.446 18.5396 94.6004 18.3828 94.7973 18.2689C94.9942 18.155 95.2109 18.0981 95.4476 18.0981ZM95.3153 21.1951C95.6359 21.1951 95.886 21.0801 96.0657 20.8502C96.2453 20.6203 96.3352 20.3024 96.3352 19.8963C96.3352 19.4903 96.2453 19.1723 96.0657 18.9424C95.886 18.7125 95.637 18.5976 95.3185 18.5976C95.0044 18.5976 94.7548 18.7141 94.5697 18.9473C94.3847 19.1804 94.2922 19.4967 94.2922 19.8963C94.2922 20.2938 94.3847 20.6096 94.5697 20.8438C94.7548 21.078 95.0033 21.1951 95.3153 21.1951ZM99.5686 18.0981C100.012 18.0981 100.366 18.2614 100.632 18.5879C100.898 18.9145 101.031 19.3506 101.031 19.8963C101.031 20.4399 100.898 20.8755 100.632 21.2031C100.366 21.5308 100.012 21.6946 99.5686 21.6946C99.3211 21.6946 99.1017 21.643 98.9102 21.5399C98.7187 21.4368 98.5756 21.2939 98.4809 21.1113H98.4293V22.7935H97.8741V18.1593H98.4035V18.7394H98.4551C98.567 18.5396 98.7214 18.3828 98.9182 18.2689C99.1151 18.155 99.3319 18.0981 99.5686 18.0981ZM99.4363 21.1951C99.7569 21.1951 100.007 21.0801 100.187 20.8502C100.366 20.6203 100.456 20.3024 100.456 19.8963C100.456 19.4903 100.366 19.1723 100.187 18.9424C100.007 18.7125 99.7579 18.5976 99.4395 18.5976C99.1253 18.5976 98.8758 18.7141 98.6907 18.9473C98.5057 19.1804 98.4131 19.4967 98.4131 19.8963C98.4131 20.2938 98.5057 20.6096 98.6907 20.8438C98.8758 21.078 99.1243 21.1951 99.4363 21.1951ZM105.383 21.6946C104.889 21.6946 104.497 21.534 104.21 21.2128C103.923 20.8916 103.779 20.4528 103.779 19.8963C103.779 19.3377 103.923 18.8984 104.21 18.5783C104.497 18.2581 104.889 18.0981 105.383 18.0981C105.878 18.0981 106.269 18.2581 106.557 18.5783C106.844 18.8984 106.988 19.3377 106.988 19.8963C106.988 20.4528 106.844 20.8916 106.557 21.2128C106.269 21.534 105.878 21.6946 105.383 21.6946ZM105.383 21.1951C105.713 21.1951 105.967 21.0812 106.145 20.8535C106.324 20.6257 106.413 20.3067 106.413 19.8963C106.413 19.4838 106.324 19.1642 106.145 18.9376C105.967 18.7109 105.713 18.5976 105.383 18.5976C105.054 18.5976 104.8 18.7109 104.622 18.9376C104.443 19.1642 104.354 19.4838 104.354 19.8963C104.354 20.3067 104.443 20.6257 104.622 20.8535C104.8 21.0812 105.054 21.1951 105.383 21.1951ZM107.952 21.6333C107.952 21.6333 107.952 21.5162 107.952 21.2821C107.952 21.0479 107.952 20.7584 107.952 20.4136C107.952 20.0687 107.952 19.7239 107.952 19.3791C107.952 19.0343 107.952 18.7448 107.952 18.5106C107.952 18.2764 107.952 18.1593 107.952 18.1593H108.481V18.7072H108.533C108.621 18.516 108.751 18.3666 108.922 18.2592C109.093 18.1518 109.312 18.0981 109.579 18.0981C109.97 18.0981 110.271 18.2093 110.481 18.4316C110.691 18.654 110.795 18.9714 110.795 19.3839V21.6333H110.24V19.5193C110.24 19.2056 110.173 18.9736 110.039 18.8232C109.904 18.6728 109.698 18.5976 109.421 18.5976C109.143 18.5976 108.921 18.6846 108.756 18.8586C108.59 19.0327 108.507 19.2722 108.507 19.5773V21.6333H107.952Z" fill="white"/>
<path fill-rule="evenodd" clip-rule="evenodd" d="M70.446 33.9188C70.446 35.1735 70.0985 36.1543 69.4035 36.8611C68.7085 37.5679 67.7392 37.9214 66.4955 37.9214C65.1959 37.9214 64.1599 37.482 63.3874 36.6033C62.615 35.7246 62.2288 34.5462 62.2288 33.068C62.2288 31.6157 62.6139 30.4598 63.3842 29.6005C64.1545 28.7411 65.1916 28.3114 66.4955 28.3114C67.5025 28.3114 68.36 28.5875 69.0679 29.1396C69.7758 29.6918 70.2158 30.4298 70.3879 31.3536H69.1679C68.9743 30.7262 68.644 30.2407 68.1771 29.8969C67.7102 29.5532 67.1497 29.3813 66.4955 29.3813C65.5359 29.3813 64.7839 29.7068 64.2395 30.3578C63.6951 31.0088 63.4229 31.91 63.4229 33.0616C63.4229 34.2304 63.6984 35.1542 64.2492 35.8331C64.8 36.512 65.5488 36.8514 66.4955 36.8514C67.3218 36.8514 67.9931 36.6076 68.5095 36.1199C69.0259 35.6322 69.2841 34.9995 69.2841 34.2218V34.0542H66.6569V33.0358H70.446V33.9188ZM76.5062 28.3114C77.8273 28.3114 78.873 28.7432 79.6433 29.6069C80.4136 30.4706 80.7988 31.6415 80.7988 33.1196C80.7988 34.5934 80.4136 35.7622 79.6433 36.6259C78.873 37.4895 77.8273 37.9214 76.5062 37.9214C75.185 37.9214 74.1393 37.4895 73.369 36.6259C72.5987 35.7622 72.2136 34.5934 72.2136 33.1196C72.2136 31.6415 72.5987 30.4706 73.369 29.6069C74.1393 28.7432 75.185 28.3114 76.5062 28.3114ZM76.5062 29.3813C75.5551 29.3813 74.801 29.7176 74.2437 30.39C73.6864 31.0625 73.4077 31.9723 73.4077 33.1196C73.4077 34.2626 73.6864 35.1703 74.2437 35.8427C74.801 36.5152 75.5551 36.8514 76.5062 36.8514C77.4572 36.8514 78.2114 36.5152 78.7687 35.8427C79.3259 35.1703 79.6046 34.2626 79.6046 33.1196C79.6046 31.9723 79.3259 31.0625 78.7687 30.39C78.2114 29.7176 77.4572 29.3813 76.5062 29.3813ZM86.8202 28.3114C88.1413 28.3114 89.187 28.7432 89.9573 29.6069C90.7276 30.4706 91.1128 31.6415 91.1128 33.1196C91.1128 34.5934 90.7276 35.7622 89.9573 36.6259C89.187 37.4895 88.1413 37.9214 86.8202 37.9214C85.499 37.9214 84.4533 37.4895 83.683 36.6259C82.9127 35.7622 82.5276 34.5934 82.5276 33.1196C82.5276 31.6415 82.9127 30.4706 83.683 29.6069C84.4533 28.7432 85.499 28.3114 86.8202 28.3114ZM86.8202 29.3813C85.8691 29.3813 85.115 29.7176 84.5577 30.39C84.0004 31.0625 83.7218 31.9723 83.7218 33.1196C83.7218 34.2626 84.0004 35.1703 84.5577 35.8427C85.115 36.5152 85.8691 36.8514 86.8202 36.8514C87.7712 36.8514 88.5254 36.5152 89.0827 35.8427C89.64 35.1703 89.9186 34.2626 89.9186 33.1196C89.9186 31.9723 89.64 31.0625 89.0827 30.39C88.5254 29.7176 87.7712 29.3813 86.8202 29.3813ZM101.059 33.9188C101.059 35.1735 100.711 36.1543 100.016 36.8611C99.3214 37.5679 98.3521 37.9214 97.1084 37.9214C95.8088 37.9214 94.7727 37.482 94.0003 36.6033C93.2278 35.7246 92.8416 34.5462 92.8416 33.068C92.8416 31.6157 93.2267 30.4598 93.997 29.6005C94.7674 28.7411 95.8045 28.3114 97.1084 28.3114C98.1154 28.3114 98.9728 28.5875 99.6807 29.1396C100.389 29.6918 100.829 30.4298 101.001 31.3536H99.7808C99.5871 30.7262 99.2568 30.2407 98.7899 29.8969C98.323 29.5532 97.7625 29.3813 97.1084 29.3813C96.1487 29.3813 95.3967 29.7068 94.8523 30.3578C94.308 31.0088 94.0358 31.91 94.0358 33.0616C94.0358 34.2304 94.3112 35.1542 94.862 35.8331C95.4129 36.512 96.1616 36.8514 97.1084 36.8514C97.9346 36.8514 98.6059 36.6076 99.1223 36.1199C99.6388 35.6322 99.8969 34.9995 99.8969 34.2218V34.0542H97.2698V33.0358H101.059V33.9188ZM108.842 36.7225V37.7667H103.188V28.4661H104.35V36.7225H108.842ZM116.536 36.7225V37.7667H110.765V28.4661H116.536V29.5102H111.927V32.4944H116.297V33.5257H111.927V36.7225H116.536ZM122.065 28.4661H125.39C126.263 28.4661 126.979 28.7432 127.536 29.2975C128.093 29.8518 128.372 30.5694 128.372 31.4503C128.372 32.3311 128.091 33.0509 127.53 33.6094C126.968 34.168 126.25 34.4473 125.377 34.4473H123.227V37.7667H122.065V28.4661ZM123.227 29.4973V33.4161H125.086C125.753 33.4161 126.269 33.2431 126.632 32.8972C126.996 32.5513 127.178 32.069 127.178 31.4503C127.178 30.8358 126.996 30.3567 126.632 30.013C126.269 29.6692 125.753 29.4973 125.086 29.4973H123.227ZM136.001 36.7225V37.7667H130.346V28.4661H131.508V36.7225H136.001ZM143.978 37.7667L143.836 37.3638C143.741 37.0953 143.633 36.7859 143.51 36.4357C143.387 36.0855 143.279 35.7761 143.184 35.5076L143.042 35.1048H139.337L138.401 37.7667H137.181L140.615 28.4661H141.764L145.198 37.7667H143.978ZM141.17 29.8776L141.018 30.3062C140.917 30.592 140.794 30.9454 140.647 31.3665C140.501 31.7876 140.354 32.2087 140.205 32.6298C140.057 33.0509 139.932 33.4043 139.831 33.69L139.679 34.1186H142.7L141.209 29.8776H141.17ZM149.47 37.7667C149.47 37.7667 149.412 37.7667 149.296 37.7667C149.18 37.7667 149.044 37.7667 148.889 37.7667C148.734 37.7667 148.599 37.7667 148.483 37.7667C148.366 37.7667 148.308 37.7667 148.308 37.7667V33.7641L145.003 28.4661H146.327L148.87 32.6427H148.909L151.452 28.4661H152.775L149.47 33.7641V37.7667Z" fill="white"/>
<ellipse opacity="0.701318" cx="32.6433" cy="27.5" rx="21.0369" ry="20.9868" stroke="white"/>
<path fill-rule="evenodd" clip-rule="evenodd" d="M39.5392 24.3321L26.2066 17.0899C25.8286 16.8855 25.4799 16.838 25.1975 16.925L36.1181 27.7125L39.5392 24.3321Z" fill="url(#paint0_linear_1804_6098)"/>
<path fill-rule="evenodd" clip-rule="evenodd" d="M39.5565 31.1095L44.1079 28.6372C45.0308 28.1341 45.0308 27.3155 44.1079 26.8137L39.5396 24.3321L36.1179 27.7125L39.5565 31.1095Z" fill="url(#paint1_linear_1804_6098)"/>
<path fill-rule="evenodd" clip-rule="evenodd" d="M25.1968 16.925C24.7912 17.0504 24.5288 17.4559 24.5288 18.0695L24.5313 37.3814C24.5313 37.9882 24.7856 38.3876 25.1793 38.5209L36.118 27.7143L25.1968 16.925Z" fill="url(#paint2_linear_1804_6098)"/>
<path fill-rule="evenodd" clip-rule="evenodd" d="M25.1792 38.5209C25.4635 38.616 25.819 38.5716 26.2065 38.3617L39.5546 31.1095L36.1179 27.7144L25.1792 38.5209Z" fill="url(#paint3_linear_1804_6098)"/>
<mask id="mask0_1804_6098" style="mask-type:alpha" maskUnits="userSpaceOnUse" x="25" y="27" width="15" height="12">
<path fill-rule="evenodd" clip-rule="evenodd" d="M25.1792 38.5209C25.4635 38.616 25.819 38.5716 26.2065 38.3617L39.5546 31.1095L36.1179 27.7144L25.1792 38.5209Z" fill="white"/>
</mask>
<g mask="url(#mask0_1804_6098)">
</g>
<defs>
<linearGradient id="paint0_linear_1804_6098" x1="18.7248" y1="15.7884" x2="23.0657" y2="30.5599" gradientUnits="userSpaceOnUse">
<stop stop-color="#19A3B4"/>
<stop offset="0.348168" stop-color="#5BC3AF"/>
<stop offset="0.922336" stop-color="#C8F7A6"/>
<stop offset="1" stop-color="#D7FEA5"/>
</linearGradient>
<linearGradient id="paint1_linear_1804_6098" x1="24.9233" y1="19.6184" x2="29.9205" y2="35.9529" gradientUnits="userSpaceOnUse">
<stop stop-color="#FC227C"/>
<stop offset="1" stop-color="#FEEB7B"/>
</linearGradient>
<linearGradient id="paint2_linear_1804_6098" x1="22.1295" y1="15.8895" x2="29.4613" y2="35.076" gradientUnits="userSpaceOnUse">
<stop stop-color="#0E4DA0"/>
<stop offset="1" stop-color="#6BFED4"/>
</linearGradient>
<linearGradient id="paint3_linear_1804_6098" x1="36.2946" y1="22.6479" x2="22.5911" y2="38.4341" gradientUnits="userSpaceOnUse">
<stop stop-color="#FC472E"/>
<stop offset="0.00331892" stop-color="#FC472F"/>
<stop offset="1" stop-color="#893CD8"/>
</linearGradient>
</defs>
</svg>
