<svg width="51" height="50" viewBox="0 0 51 50" fill="none" xmlns="http://www.w3.org/2000/svg">
<g id="Challenge">
<path id="Shape" fill-rule="evenodd" clip-rule="evenodd" d="M48.1 41.5667L39.95 30.0001C43.6083 23.211 41.9356 14.781 35.9624 9.90304C29.9892 5.02504 21.395 5.07068 15.4739 10.0118C9.55283 14.953 7.9698 23.4002 11.7 30.1501L3.64999 41.5667C3.35177 41.9825 3.31246 42.5305 3.54828 42.9845C3.7841 43.4386 4.25505 43.7216 4.76665 43.7167H46.9833C47.4949 43.7216 47.9659 43.4386 48.2017 42.9845C48.4375 42.5305 48.3982 41.9825 48.1 41.5667ZM14.7667 28.5917L17.7667 32.8501L16.4333 34.7417L15.35 33.6584C15.1968 33.5064 14.9907 33.4198 14.775 33.4167C14.5593 33.4198 14.3531 33.5064 14.2 33.6584L12.0083 35.8334L10.625 34.4751L14.7667 28.5917ZM29.5667 17.0084L30.25 16.0917L26.6 16.0834V18.9001H30.25L29.5667 17.9834C29.3567 17.6923 29.3567 17.2995 29.5667 17.0084ZM25.775 24.3084L30.5167 31.0417L28.8917 32.6667L26.4417 30.2167C26.1197 29.9098 25.6136 29.9098 25.2917 30.2167L22.9833 32.5001L21.225 30.7417L25.775 24.3084ZM22.4 34.2584L20.2667 32.1251L13.25 42.0917H38.325L31.475 32.3751L29.475 34.3834C29.1531 34.6903 28.6469 34.6903 28.325 34.3834L25.875 31.9334L23.55 34.2584C23.2281 34.5653 22.7219 34.5653 22.4 34.2584ZM33.875 32.9584L36.9667 28.5751L41.1333 34.4584L39.7417 35.8334L37.5417 33.6584C37.3885 33.5064 37.1824 33.4198 36.9667 33.4167C36.7509 33.4198 36.5448 33.5064 36.3917 33.6584L35.2083 34.8501L33.875 32.9584ZM20.4421 8.92703C14.9319 11.1161 11.3152 16.4459 11.3167 22.3751C11.3147 24.5409 11.7988 26.6795 12.7333 28.6334L13.6417 27.3501C13.9101 27.0062 14.3221 26.8052 14.7583 26.8052C15.1946 26.8052 15.6065 27.0062 15.875 27.3501L18.7417 31.4084L24.6417 23.0751C24.7255 22.9619 24.8301 22.8657 24.95 22.7917V15.2917C24.95 14.8315 25.3231 14.4584 25.7833 14.4584H31.8917C32.1927 14.4728 32.4625 14.6485 32.5972 14.9181C32.732 15.1876 32.7108 15.5089 32.5417 15.7584L31.2333 17.5001L32.5417 19.2167C32.7114 19.4674 32.7319 19.7904 32.5951 20.0605C32.4583 20.3306 32.1858 20.5052 31.8833 20.5167H26.6V22.7751C26.7155 22.8516 26.817 22.9474 26.9 23.0584L32.8583 31.5584L35.825 27.3501C36.0935 27.0062 36.5054 26.8052 36.9417 26.8052C37.3779 26.8052 37.7899 27.0062 38.0583 27.3501L38.8917 28.4917C41.4 23.1193 40.3762 16.7601 36.3084 12.4465C32.2405 8.13278 25.9524 6.73794 20.4421 8.92703ZM9.68332 35.8334L11.4333 37.5834C11.7552 37.8903 12.2614 37.8903 12.5833 37.5834L14.7833 35.3917L15.4917 36.1001L11.6333 41.5751C11.5253 41.7331 11.4516 41.9119 11.4167 42.1001H5.25832L9.68332 35.8334ZM39.9417 41.5751C40.0471 41.7335 40.1181 41.9124 40.15 42.1001L46.5333 42.0917L42.1083 35.8251L40.3583 37.5751C40.0364 37.8819 39.5302 37.8819 39.2083 37.5751L36.9917 35.3751L36.1583 36.2084L39.9417 41.5751Z" fill="#3D3D63"/>
</g>
</svg>
