<svg width="50" height="49" viewBox="0 0 50 49" fill="none" xmlns="http://www.w3.org/2000/svg">
<g id="Gaming">
<path id="Shape" d="M12.4095 22.8666C12.6229 22.8288 12.8125 22.7077 12.9366 22.5301C13.0606 22.3524 13.109 22.1327 13.071 21.9193L12.875 20.9148C12.824 20.623 12.6211 20.3807 12.3429 20.279C12.0647 20.1773 11.7534 20.2318 11.5262 20.4219C11.2991 20.612 11.1906 20.9089 11.2417 21.2006L11.4213 22.2133C11.4604 22.4339 11.5883 22.6287 11.7751 22.7522C11.9619 22.8757 12.1913 22.9171 12.4095 22.8666Z" fill="#3D3D63"/>
<path id="Shape_2" d="M9.71451 25.4473L10.7353 25.2677C11.0567 25.2544 11.3403 25.0539 11.4598 24.7553C11.5794 24.4568 11.5126 24.1159 11.2893 23.8845C11.0659 23.6531 10.7276 23.5744 10.425 23.6833L9.41234 23.863C8.96131 23.9397 8.65783 24.3675 8.73451 24.8185C8.81118 25.2695 9.23897 25.573 9.69001 25.4963L9.71451 25.4473Z" fill="#3D3D63"/>
<path id="Shape_3" d="M12.1808 26.2803L12.3605 27.293C12.4394 27.7336 12.8582 28.0287 13.2997 27.9545C13.7436 27.8796 14.0431 27.4595 13.9693 27.0153L13.7897 25.9945C13.7184 25.5583 13.3131 25.2579 12.875 25.3167C12.6522 25.3463 12.4515 25.4665 12.3202 25.6489C12.1888 25.8312 12.1384 26.0596 12.1808 26.2803Z" fill="#3D3D63"/>
<path id="Shape_4" d="M14.8023 24.5491L15.815 24.3694C16.1068 24.3183 16.3491 24.1155 16.4508 23.8373C16.5524 23.5591 16.498 23.2478 16.3079 23.0206C16.1178 22.7935 15.8209 22.685 15.5292 22.7361L14.5083 22.9402C14.0573 23.0192 13.7556 23.4488 13.8346 23.8998C13.9135 24.3508 14.3431 24.6525 14.7942 24.5736L14.8023 24.5491Z" fill="#3D3D63"/>
<path id="Shape_5" d="M29.2736 20.3431L28.261 20.5228C28.0448 20.5549 27.8505 20.6724 27.7215 20.8489C27.5926 21.0254 27.5398 21.2462 27.575 21.4619C27.6109 21.6768 27.7312 21.8685 27.9091 21.9942C28.087 22.12 28.3077 22.1694 28.5223 22.1316L29.5431 21.9519C29.7565 21.9141 29.9461 21.793 30.0702 21.6154C30.1943 21.4377 30.2426 21.218 30.2046 21.0046C30.1257 20.5677 29.7122 20.2739 29.2736 20.3431Z" fill="#3D3D63"/>
<path id="Shape_6" d="M31.6583 22.05C31.2177 22.1288 30.9227 22.5477 30.9968 22.9891L31.1765 24.01C31.2554 24.4506 31.6742 24.7456 32.1157 24.6715C32.3407 24.6384 32.5417 24.513 32.6704 24.3254C32.7991 24.1379 32.8437 23.9051 32.7935 23.6833L32.6138 22.6706C32.5161 22.239 32.0924 21.9638 31.6583 22.05Z" fill="#3D3D63"/>
<path id="Shape_7" d="M40.1517 15.68C39.748 15.4795 39.2582 15.644 39.0574 16.0475C38.5539 17.0369 37.4481 17.5642 36.3624 17.3325C35.2768 17.1008 34.4825 16.1681 34.4269 15.0593C34.4269 14.6083 34.0612 14.2427 33.6102 14.2427C33.1592 14.2427 32.7935 14.6083 32.7935 15.0593C32.8855 16.911 34.2133 18.4684 36.0272 18.8518C37.8411 19.2353 39.6856 18.3487 40.5192 16.6927C40.6683 16.3107 40.511 15.8775 40.1517 15.68Z" fill="#3D3D63"/>
<path id="Shape_8" d="M34.1083 12.6992C34.3878 12.7625 34.6809 12.7119 34.923 12.5587C35.1651 12.4055 35.3363 12.1622 35.3987 11.8825C35.5261 11.2994 35.1628 10.7217 34.582 10.584C33.9923 10.4681 33.4184 10.8459 33.2917 11.4333C33.1839 12.0053 33.5428 12.5615 34.1083 12.6992Z" fill="#3D3D63"/>
<path id="Shape_9" d="M40.7478 11.8825C40.3187 11.7834 39.8721 11.9533 39.6174 12.3126C39.3626 12.6719 39.3501 13.1495 39.5856 13.5217C39.8212 13.8939 40.2582 14.087 40.692 14.0105C41.1258 13.934 41.4704 13.6032 41.5645 13.1729C41.6869 12.5925 41.3248 12.0202 40.7478 11.8825Z" fill="#3D3D63"/>
<path id="Shape_10" fill-rule="evenodd" clip-rule="evenodd" d="M45.2966 15.9087C46.2633 11.5114 43.6066 7.12999 39.2607 5.95405C34.9147 4.77811 30.4112 7.22211 29.0286 11.5068C28.2506 11.7458 27.5266 12.1342 26.8971 12.6502C26.3841 13.0787 26.0684 13.6982 26.0233 14.3652L25.8681 16.562L25.7211 16.7743L23.3773 17.1908C24.6023 15.4595 25.9906 12.74 24.9453 10.192C23.4018 6.45984 17.775 6.53334 16.0926 6.664C14.7545 6.73404 13.4352 7.00949 12.1808 7.48067C10.7108 8.0605 9.66547 8.14217 8.79164 7.73384C8.31112 7.48998 7.99908 7.00632 7.97497 6.468C7.95163 6.17624 7.77441 5.91909 7.51006 5.79342C7.24571 5.66775 6.9344 5.69265 6.69339 5.85875C6.45239 6.02485 6.3183 6.3069 6.34164 6.59867C6.40087 7.74146 7.08101 8.7601 8.11381 9.25284C9.63777 9.82482 11.3299 9.74509 12.7933 9.03234C13.8888 8.61116 15.0433 8.36319 16.2151 8.29734C19.1306 8.09317 22.5443 8.6485 23.4426 10.8127C24.5451 13.4995 21.6623 16.8315 20.9191 17.6237L16.6398 18.375L16.4275 18.2198L15.5291 16.2108C15.2628 15.599 14.7539 15.1256 14.1245 14.9042C12.0598 14.2013 9.77902 14.6051 8.08114 15.974C7.57007 16.4006 7.2546 17.0168 7.20731 17.6808L7.05214 19.8777C6.12556 21.0933 5.62349 22.5795 5.62297 24.108V24.3122V24.892L4.80631 37.5095C4.61421 40.2799 6.54613 42.7477 9.28164 43.2262C12.0056 43.7037 14.6534 42.0581 15.4311 39.4042L17.2523 33.1975C17.323 33.2015 17.3939 33.2015 17.4646 33.1975C19.3842 33.1612 20.9475 31.6442 21.0416 29.7267L25.3781 28.9672C25.9559 30.3176 27.2822 31.1943 28.751 31.1967C29.2487 31.1983 29.7411 31.0954 30.1965 30.8945L34.0266 36.0967C35.6714 38.3112 38.715 38.941 41.1035 37.5609C43.492 36.1808 44.4665 33.2294 43.3693 30.6985L39.6616 22.1643C42.5197 21.231 44.6659 18.8484 45.2966 15.9087ZM27.6566 14.4795C27.6704 14.2622 27.7703 14.0593 27.9343 13.916C28.1515 13.7367 28.3869 13.5807 28.6366 13.4505C28.6204 13.7661 28.6204 14.0823 28.6366 14.3978C28.2928 14.5497 27.9623 14.73 27.6485 14.9368L27.6566 14.4795ZM25.9988 25.1452C24.495 23.3027 24.0417 20.8175 24.7983 18.5628L18.1098 19.7715C19.5984 21.6324 20.0271 24.1273 19.245 26.3783C19.9346 26.7753 20.4763 27.3859 20.7885 28.1178L25.125 27.3583C25.1584 26.5432 25.4663 25.7633 25.9988 25.1452ZM8.83247 17.7462C8.84619 17.5288 8.94615 17.326 9.11014 17.1827C10.3591 16.1592 12.047 15.8506 13.5773 16.366C13.7815 16.4433 13.9462 16.5992 14.0346 16.7988L14.2143 17.2072C12.3414 16.773 10.3722 17.1496 8.79164 18.2443L8.83247 17.7462ZM17.9955 24.059C17.9955 21.0899 15.5909 18.6817 12.6218 18.6772V18.7017C9.73325 18.8143 7.44958 21.1887 7.44958 24.0794C7.44958 26.9702 9.73325 29.3446 12.6218 29.4572C13.0203 29.4532 13.4173 29.4067 13.806 29.3183C13.9099 27.3854 15.5045 25.8697 17.4401 25.8638C17.519 25.8598 17.5981 25.8598 17.677 25.8638C17.887 25.2852 17.9947 24.6745 17.9955 24.059ZM13.8386 38.8733C13.3055 40.739 11.4492 41.9004 9.53827 41.5641C7.62733 41.2277 6.27922 39.5022 6.41514 37.5667L7.01131 28.2322C8.32654 30.0127 10.4082 31.0641 12.6218 31.066C13.1107 31.0614 13.5978 31.0067 14.0755 30.9027C14.3931 31.6502 14.9505 32.2708 15.6598 32.6667L13.8386 38.8733ZM15.569 30.2731C15.8825 31.0299 16.621 31.5233 17.4401 31.5233V31.5642C17.9844 31.5643 18.5059 31.3453 18.8869 30.9566C19.2679 30.5679 19.4764 30.0422 19.4655 29.498C19.4655 28.6788 18.972 27.9403 18.2152 27.6268C17.4584 27.3134 16.5873 27.4866 16.008 28.0659C15.4288 28.6451 15.2555 29.5163 15.569 30.2731ZM28.7836 29.5633C27.6683 29.5633 26.7628 28.6615 26.7583 27.5462C26.7563 27.1053 26.9031 26.6766 27.1748 26.3293C28.2155 27.1389 29.4642 27.6372 30.7763 27.7667C30.6679 28.7863 29.809 29.5607 28.7836 29.5633ZM28.8326 16.0965C27.1324 17.0448 26.0768 18.8374 26.0723 20.7842C26.0777 23.3975 27.9625 25.6281 30.5384 26.0695C33.1142 26.5109 35.6341 25.0351 36.5093 22.5727C36.0977 22.5464 35.6884 22.4918 35.2843 22.4093C32.0952 21.7274 29.5837 19.2701 28.8326 16.0965ZM41.9075 31.3518C42.6732 33.1215 41.9911 35.1841 40.3214 36.1484C38.6516 37.1127 36.5242 36.6725 35.3741 35.1248L31.5358 29.9145C32.0578 29.3149 32.3678 28.5601 32.4178 27.7667C35.1144 27.3848 37.3446 25.4732 38.1345 22.8667L41.9075 31.3518ZM30.3389 15.3993C30.8432 18.1088 32.9308 20.2473 35.6273 20.8168C39.3025 21.5931 42.9123 19.2474 43.696 15.5738C44.271 12.8784 43.1649 10.1022 40.8939 8.54063C38.623 6.97907 35.6347 6.94002 33.3237 8.4417C31.0127 9.94338 29.8345 12.6898 30.3389 15.3993Z" fill="#3D3D63"/>
</g>
</svg>
