<svg width="51" height="50" viewBox="0 0 51 50" fill="none" xmlns="http://www.w3.org/2000/svg">
<g id="Gifts">
<path id="Shape" fill-rule="evenodd" clip-rule="evenodd" d="M43 27.0667L44.375 27.4417C44.5973 27.4873 44.7914 27.6215 44.9125 27.8133C45.0336 28.0052 45.0712 28.2382 45.0167 28.4584L44.1833 31.4584C44.0652 31.902 43.6107 32.1665 43.1667 32.0501L42.8333 31.9584L41.0167 38.7251C40.5803 40.3882 39.4931 41.8057 38 42.6584L33.1333 45.4584C31.7314 46.2722 30.0568 46.4742 28.5016 46.0173C26.9464 45.5603 25.6472 44.4845 24.9083 43.0417C24.8174 42.866 24.7367 42.6851 24.6667 42.5001H22.45V42.7751C22.45 43.2353 22.0769 43.6084 21.6167 43.6084H17.1667C16.7064 43.6084 16.3333 43.2353 16.3333 42.7751V42.5001H10.5C9.11928 42.5001 8 41.3808 8 40.0001V22.1667H7.725C7.26476 22.1667 6.89166 21.7936 6.89166 21.3334V16.8834C6.89166 16.4232 7.26476 16.0501 7.725 16.0501H8V10.0001C8 8.61935 9.11928 7.50006 10.5 7.50006H16.3333V7.22506C16.3333 6.76482 16.7064 6.39172 17.1667 6.39172H21.65C22.1102 6.39172 22.4833 6.76482 22.4833 7.22506V7.50006H40.5C41.8807 7.50006 43 8.61935 43 10.0001V16.0501H43.275C43.7352 16.0501 44.1083 16.4232 44.1083 16.8834V21.3334C44.1083 21.7936 43.7352 22.1667 43.275 22.1667H43V27.0667ZM26.6667 20.5001H42.4417V17.7167H26.6667C26.3624 18.2628 25.9447 18.7373 25.4417 19.1084C25.9447 19.4794 26.3624 19.954 26.6667 20.5001ZM22.4833 9.16672H40.5C40.9602 9.16672 41.3333 9.53982 41.3333 10.0001V16.0501H27.1667C27.1915 15.9039 27.2082 15.7564 27.2167 15.6084C27.2167 13.2152 25.2766 11.2751 22.8833 11.2751C22.7409 11.2803 22.599 11.2942 22.4583 11.3167L22.4833 9.16672ZM25.575 15.6084C25.575 14.1356 24.3811 12.9417 22.9083 12.9417C22.2011 12.9417 21.5228 13.2227 21.0227 13.7228C20.5226 14.2229 20.2417 14.9011 20.2417 15.6084V15.8917C21.4056 16.199 22.3134 17.11 22.6167 18.2751H22.9083C24.3811 18.2751 25.575 17.0812 25.575 15.6084ZM18.575 15.6084V15.8917C17.4078 16.1964 16.4963 17.1079 16.1917 18.2751H15.9083C14.4356 18.2751 13.2417 17.0812 13.2417 15.6084C13.2417 14.1356 14.4356 12.9417 15.9083 12.9417C17.3811 12.9417 18.575 14.1356 18.575 15.6084ZM21.075 19.1084C21.075 18.1879 20.3288 17.4417 19.4083 17.4417C18.4879 17.4417 17.7417 18.1879 17.7417 19.1084C17.7417 20.0289 18.4879 20.7751 19.4083 20.7751C20.3288 20.7751 21.075 20.0289 21.075 19.1084ZM18 8.05839H20.7833V11.8334C20.2255 12.1347 19.7439 12.5594 19.375 13.0751C19.0079 12.5768 18.5392 12.1621 18 11.8584V8.05839ZM10.5 9.16672C10.0398 9.16672 9.66666 9.53982 9.66666 10.0001V16.0501H11.5833C11.5585 15.9039 11.5418 15.7564 11.5333 15.6084C11.5379 13.2138 13.4804 11.2751 15.875 11.2751C16.0284 11.2803 16.1815 11.2942 16.3333 11.3167V9.16672H10.5ZM8.55833 20.5001V17.7167H12.1667C12.4713 18.265 12.8923 18.74 13.4 19.1084C12.8923 19.4768 12.4713 19.9518 12.1667 20.5001H8.55833ZM10.5 40.8334H16.3333L16.3667 26.9417C16.214 26.9503 16.061 26.9503 15.9083 26.9417C13.5137 26.9417 11.5713 25.003 11.5667 22.6084C11.5746 22.4603 11.5913 22.3128 11.6167 22.1667H9.66666V40.0001C9.66666 40.4603 10.0398 40.8334 10.5 40.8334ZM15.875 25.2751C14.9223 25.2751 14.0419 24.7668 13.5656 23.9417C13.0892 23.1167 13.0892 22.1001 13.5656 21.2751C14.0419 20.45 14.9223 19.9417 15.875 19.9417H16.1583C16.463 21.1089 17.3745 22.0204 18.5417 22.3251V22.6084C18.5418 24.0682 17.3681 25.2568 15.9083 25.2751H15.875ZM18 41.9417H20.7833V26.3834C20.2282 26.0783 19.7472 25.6543 19.375 25.1417C19.0079 25.64 18.5392 26.0547 18 26.3584V41.9417ZM20.2083 22.6084V22.3251C21.3723 22.0178 22.2801 21.1067 22.5833 19.9417H22.875C24.3478 19.9417 25.5417 21.1356 25.5417 22.6084C25.5417 24.0812 24.3478 25.2751 22.875 25.2751C21.4022 25.2751 20.2083 24.0812 20.2083 22.6084ZM22.4833 40.8334H24.275C24.1107 38.5006 25.3001 36.2806 27.3333 35.1251L29.9917 33.5501C30.0584 33.5087 30.1062 33.4429 30.125 33.3667L31.3333 28.8667L31 28.7751C30.5598 28.6533 30.2996 28.1999 30.4167 27.7584L31.25 24.7584C31.3681 24.3148 31.8227 24.0503 32.2667 24.1667L41.3333 26.6667V22.1667H27.1667C27.1989 22.2986 27.2239 22.4321 27.2417 22.5667C27.2417 24.96 25.3016 26.9001 22.9083 26.9001C22.7668 26.9087 22.6249 26.9087 22.4833 26.9001V40.8334ZM30.4417 44.5584C29.945 44.5996 29.4449 44.5487 28.9667 44.4084C27.6762 44.0501 26.6366 43.0933 26.1727 41.8369C25.7088 40.5805 25.8771 39.1777 26.625 38.0667C28.9667 39.0576 30.4845 41.3574 30.475 43.9001C30.5 44.1667 30.5 44.3501 30.4417 44.5584ZM37.1667 41.2167C38.2552 40.5836 39.0513 39.5481 39.3833 38.3334L39.5667 37.7001C37.8737 37.8343 36.566 39.2435 36.5583 40.9417C36.5636 41.1377 36.5859 41.3329 36.625 41.5251L37.1667 41.2167ZM39.9917 36.0584H39.8C37.0773 36.063 34.8713 38.269 34.8667 40.9917C34.8689 41.4869 34.9476 41.9789 35.1 42.4501L32.2917 44.0667C32.2373 44.0883 32.1844 44.1133 32.1333 44.1417V43.9917C32.1513 40.996 30.5043 38.2382 27.8583 36.8334C27.8963 36.8081 27.933 36.7804 27.9699 36.7526C28.0303 36.7071 28.0911 36.6613 28.1583 36.6251L30.85 35.0001C31.3051 34.7443 31.6362 34.3139 31.7667 33.8084L33 29.3251L41.225 31.5251L39.9917 36.0584ZM32.275 27.4084L42.7667 30.2667L43.1333 28.8334L32.6417 26.0167L32.275 27.4084Z" fill="#3D3D63"/>
</g>
</svg>
