<svg width="51" height="50" viewBox="0 0 51 50" fill="none" xmlns="http://www.w3.org/2000/svg">
<g id="In Maintenance">
<path id="Shape" d="M37.4833 12.9666C37.4833 12.5064 37.1102 12.1333 36.65 12.1333H31.65C31.1897 12.1333 30.8167 12.5064 30.8167 12.9666C30.8167 13.4269 31.1897 13.8 31.65 13.8H36.65C36.871 13.8 37.083 13.7122 37.2392 13.5559C37.3955 13.3996 37.4833 13.1876 37.4833 12.9666Z" fill="#3D3D63"/>
<path id="Shape_2" fill-rule="evenodd" clip-rule="evenodd" d="M46.3583 42.3166H45.0333C45.1085 42.0313 45.1255 41.7337 45.0834 41.4416L42.8417 26.8749C42.627 25.4585 41.4076 24.4128 39.975 24.4166H34.975V19.9166H36.6417C36.8632 19.9179 37.0761 19.8309 37.2333 19.6749L40.8167 16.0916C40.9757 15.9357 41.0658 15.7227 41.0667 15.4999V10.4333C41.0658 10.2106 40.9757 9.99751 40.8167 9.84162L37.2333 6.25828C37.0761 6.10229 36.8632 6.01533 36.6417 6.01662H31.625C31.4035 6.01533 31.1906 6.10229 31.0333 6.25828L27.45 9.84162C27.294 9.99888 27.2071 10.2118 27.2083 10.4333V15.4999C27.2071 15.7215 27.294 15.9344 27.45 16.0916L31.0333 19.6749C31.193 19.8272 31.4044 19.9135 31.625 19.9166H33.2917V24.4166H20.1083C18.6744 24.4092 17.453 25.4567 17.2417 26.8749L17.0083 28.3333H14.2833C13.8231 28.3333 13.45 28.7064 13.45 29.1666C13.45 29.6269 13.8231 29.9999 14.2833 29.9999H16.7833L15 41.4416C14.9537 41.7335 14.9707 42.0319 15.05 42.3166H13.5833L11.9167 33.1499C11.7841 32.4105 11.1429 31.8709 10.3917 31.8666V31.4916C11.6743 31.081 12.4667 29.7973 12.259 28.4667C12.0512 27.1361 10.9051 26.1551 9.55835 26.1551C8.21159 26.1551 7.06553 27.1361 6.85774 28.4667C6.64996 29.7973 7.44238 31.081 8.72502 31.4916V31.8666C7.97503 31.8742 7.33562 32.4123 7.20002 33.1499L5.53335 42.3166H4.14168C3.68145 42.3166 3.30835 42.6897 3.30835 43.1499C3.30835 43.6102 3.68145 43.9833 4.14168 43.9833H46.3583C46.8186 43.9833 47.1917 43.6102 47.1917 43.1499C47.1917 42.6897 46.8186 42.3166 46.3583 42.3166ZM8.49168 28.8666C8.54068 28.3117 9.00546 27.8862 9.56252 27.8862C10.1196 27.8862 10.5844 28.3117 10.6333 28.8666C10.6691 29.2717 10.4732 29.6624 10.1271 29.876C9.78102 30.0896 9.34401 30.0896 8.99792 29.876C8.65183 29.6624 8.45591 29.2717 8.49168 28.8666ZM10.675 35.6083L10.2917 33.5083H8.82502L8.65835 34.4416L10.675 35.6083ZM8.34168 36.1833L11.0833 37.7583L11.4583 39.8333L8.03335 37.8666L8.34168 36.1833ZM11.8667 41.9833L7.75002 39.6083L7.22502 42.3166H11.9333L11.8667 41.9833ZM42.125 32.9416L43.0333 38.8499H17.075L17.9917 32.9416H42.125ZM28.875 15.1583L31.975 18.2499H36.35L39.4167 15.1583V10.7749L36.35 7.68328H31.975L28.875 10.7749V15.1583ZM20.1083 26.0833H39.975C40.5828 26.0806 41.1007 26.524 41.1917 27.1249L41.8334 31.2916H18.2417L18.8833 27.1249C18.9781 26.5227 19.4987 26.08 20.1083 26.0833ZM42.8917 42.3166C43.0508 42.3197 43.2031 42.2526 43.3083 42.1333C43.4186 42.0047 43.4646 41.8331 43.4333 41.6666L43.2584 40.5416H16.825L16.6417 41.6916C16.6181 41.8499 16.6636 42.0108 16.7667 42.1333C16.8744 42.2491 17.0252 42.3154 17.1833 42.3166H42.8917Z" fill="#3D3D63"/>
<path id="Shape_3" d="M26.5583 35.9583L25.95 36.575C25.6669 36.9056 25.6859 37.3985 25.9937 37.7063C26.3015 38.0141 26.7944 38.0331 27.125 37.75L28.325 36.55C28.6481 36.225 28.6481 35.7 28.325 35.375L27.05 34.0917C26.8386 33.8803 26.5305 33.7977 26.2418 33.8751C25.953 33.9525 25.7275 34.178 25.6501 34.4668C25.5727 34.7555 25.6553 35.0636 25.8667 35.275L26.5583 35.9583Z" fill="#3D3D63"/>
<path id="Shape_4" d="M20.675 35.9583L20.0667 36.575C19.8289 36.7786 19.7253 37.0984 19.7985 37.4028C19.8717 37.7072 20.1094 37.9449 20.4138 38.0181C20.7183 38.0914 21.038 37.9878 21.2417 37.75L22.4417 36.55C22.7648 36.2249 22.7648 35.7 22.4417 35.375L21.1667 34.0916C20.8399 33.7649 20.3101 33.7649 19.9834 34.0916C19.6566 34.4184 19.6566 34.9482 19.9834 35.275L20.675 35.9583Z" fill="#3D3D63"/>
<path id="Shape_5" d="M32.4416 35.9583L31.8333 36.575C31.5502 36.9056 31.5692 37.3985 31.877 37.7063C32.1848 38.0141 32.6777 38.0331 33.0083 37.75L34.2083 36.55C34.5314 36.225 34.5314 35.7 34.2083 35.375L32.9333 34.0917C32.7219 33.8803 32.4138 33.7977 32.1251 33.8751C31.8363 33.9525 31.6108 34.178 31.5334 34.4668C31.456 34.7555 31.5386 35.0636 31.75 35.275L32.4416 35.9583Z" fill="#3D3D63"/>
<path id="Shape_6" d="M38.325 35.9583L37.7167 36.575C37.4335 36.9056 37.4525 37.3985 37.7604 37.7063C38.0682 38.0141 38.561 38.0331 38.8917 37.75L40.0917 36.55C40.4148 36.2249 40.4148 35.7 40.0917 35.375L38.8167 34.0916C38.4899 33.7649 37.9601 33.7649 37.6333 34.0916C37.3066 34.4184 37.3066 34.9482 37.6333 35.275L38.325 35.9583Z" fill="#3D3D63"/>
<path id="Shape_7" fill-rule="evenodd" clip-rule="evenodd" d="M10.5667 24.65C11.0269 24.65 11.4 24.2769 11.4 23.8167V22.9167H24.4167C24.8769 22.9167 25.25 22.5436 25.25 22.0833C25.25 21.6231 24.8769 21.25 24.4167 21.25H23.1833L20.6417 18.4C20.1666 17.8689 19.4876 17.5657 18.775 17.5667C18.0625 17.5657 17.3834 17.8689 16.9083 18.4L16.4083 18.9583C15.5925 18.3352 14.4394 18.4211 13.725 19.1583L11.8667 21.25H10.5667C10.1064 21.25 9.73334 21.6231 9.73334 22.0833V23.8167C9.73334 24.2769 10.1064 24.65 10.5667 24.65ZM18.1583 19.5083C18.3159 19.3338 18.5399 19.2339 18.775 19.2333C19.0131 19.2315 19.2405 19.3316 19.4 19.5083L20.95 21.25H18.4917L17.55 20.1917L18.1583 19.5083ZM15.3917 20.2667C15.2417 20.1083 15.1167 20.1083 14.975 20.2667L14.0583 21.25H16.225L15.3917 20.2667Z" fill="#3D3D63"/>
<path id="Shape_8" d="M27.2334 22.9167H28.9C29.3603 22.9167 29.7334 22.5436 29.7334 22.0833C29.7334 21.6231 29.3603 21.25 28.9 21.25H27.2334C26.7731 21.25 26.4 21.6231 26.4 22.0833C26.4 22.5436 26.7731 22.9167 27.2334 22.9167Z" fill="#3D3D63"/>
<path id="Shape_9" d="M25.125 29.5249H34.9584C35.4186 29.5249 35.7917 29.1518 35.7917 28.6916C35.7917 28.2314 35.4186 27.8583 34.9584 27.8583H25.125C24.6648 27.8583 24.2917 28.2314 24.2917 28.6916C24.2917 29.1518 24.6648 29.5249 25.125 29.5249Z" fill="#3D3D63"/>
</g>
</svg>
