<svg width="50" height="50" viewBox="0 0 50 50" fill="none" xmlns="http://www.w3.org/2000/svg">
<g id="Man">
<path id="Shape" fill-rule="evenodd" clip-rule="evenodd" d="M41.15 44.4416H43.3833V44.45C43.8436 44.45 44.2167 44.8231 44.2167 45.2833C44.2167 45.7435 43.8436 46.1166 43.3833 46.1166H6.61666C6.15642 46.1166 5.78333 45.7435 5.78333 45.2833C5.78333 44.8231 6.15642 44.45 6.61666 44.45H8.84999V43.825C8.85459 39.571 12.3044 36.125 16.5583 36.125H17.5L17.2 35.5833C17.0511 35.3255 17.0511 35.0078 17.2 34.75L18.4 32.6666C16.3246 30.8895 15.091 28.3224 15 25.5916C13.0637 25.276 11.6255 23.6279 11.575 21.6666V20.6083C11.6113 19.2905 12.7071 18.2506 14.025 18.2833H15V17.375H13.7417C12.3516 17.2965 11.2645 16.1464 11.2645 14.7541C11.2645 13.3618 12.3516 12.2117 13.7417 12.1333H15.8333V7.79995C15.8316 6.5354 16.4417 5.34813 17.471 4.61344C18.5002 3.87874 19.8213 3.68742 21.0167 4.09995L23.7167 4.99995C24.5488 5.28314 25.4512 5.28314 26.2833 4.99995L28.9917 4.09995C30.186 3.69079 31.5045 3.88375 32.5315 4.61803C33.5585 5.35231 34.1675 6.53746 34.1667 7.79995V12.1333H36.2667C37.6568 12.2117 38.7438 13.3618 38.7438 14.7541C38.7438 16.1464 37.6568 17.2965 36.2667 17.375H35V18.2833H35.975C37.2929 18.2506 38.3886 19.2905 38.425 20.6083V21.6666C38.3745 23.6279 36.9363 25.276 35 25.5916C34.9092 28.3266 33.6722 30.8974 31.5917 32.675L32.7917 34.7583C32.9405 35.0161 32.9405 35.3338 32.7917 35.5916L32.5 36.1166H32.7667H33.4417C37.6956 36.1166 41.1454 39.5627 41.15 43.8166V44.4416ZM13.2417 21.6666C13.2828 22.7058 13.9954 23.5974 15 23.8666V19.95H14.025C13.6271 19.9163 13.2769 20.2106 13.2417 20.6083V21.6666ZM31.1 35.175L28.525 39.8916L26.2 37.575L30.3 33.8L31.1 35.175ZM36.7583 20.6083C36.723 20.2106 36.3728 19.9163 35.975 19.95H35V23.8666C36.0046 23.5974 36.7171 22.7058 36.7583 21.6666V20.6083ZM17.5 7.79995C17.4947 7.0738 17.8468 6.39146 18.4417 5.97495C19.031 5.55182 19.7886 5.44004 20.475 5.67495L23.1667 6.59995C24.3504 7.00003 25.6329 7.00003 26.8167 6.59995L29.5083 5.67495C30.1947 5.44004 30.9524 5.55182 31.5417 5.97495C32.1428 6.38774 32.5015 7.0707 32.5 7.79995V9.11662H17.5V7.79995ZM32.5 10.7833H17.5V12.1333H32.5V10.7833ZM13.7333 15.7083C13.2408 15.6622 12.8643 15.2488 12.8643 14.7541C12.8643 14.2594 13.2408 13.846 13.7333 13.8H36.2333C36.7259 13.846 37.1024 14.2594 37.1024 14.7541C37.1024 15.2488 36.7259 15.6622 36.2333 15.7083H13.7333ZM16.6667 17.375V25.3C16.6667 29.9023 20.3976 33.6333 25 33.6333C29.6024 33.6333 33.3333 29.9023 33.3333 25.3V17.375H16.6667ZM25 35.1166C25.5216 35.116 26.0424 35.077 26.5583 35L25 36.4166L23.4417 35C23.9575 35.077 24.4784 35.116 25 35.1166ZM21.475 39.9333L23.8 37.6166L19.7333 33.8416L18.9 35.2166L21.475 39.9333ZM22.225 44.4833H10.5167V43.8583C10.5213 40.5248 13.2249 37.825 16.5583 37.825H17.4417C17.7545 37.8223 18.0666 37.7944 18.375 37.7416L20.55 41.6666C20.6731 41.8989 20.8985 42.0596 21.1583 42.1H21.2833C21.5031 42.0968 21.7128 42.007 21.8667 41.85L22.05 41.675C22.1498 42.0309 22.4721 42.2785 22.8417 42.2833L22.225 44.4833ZM24.6083 42.3333L23.9667 44.4833H26.0333L25.3917 42.3333H24.6083ZM26.4667 40.6666H23.55L23.4833 40.2916L25 38.7333L26.525 40.25L26.4667 40.6666ZM27.775 44.4833H39.4917L39.5 43.8166C39.4954 40.4832 36.7918 37.7833 33.4583 37.7833H32.7833C32.4079 37.7792 32.0337 37.7373 31.6667 37.6583L29.425 41.7166C29.3019 41.9489 29.0764 42.1096 28.8167 42.15H28.6917C28.4719 42.1468 28.2622 42.057 28.1083 41.9L27.925 41.725C27.8252 42.0809 27.5029 42.3285 27.1333 42.3333L27.775 44.4833Z" fill="#3D3D63"/>
<path id="Shape_2" d="M21.7333 27.0833C21.5295 27.1711 21.3691 27.3367 21.2878 27.5432C21.2064 27.7496 21.2108 27.9801 21.3 28.1833C21.9396 29.6573 23.3931 30.6111 25 30.6111C26.6068 30.6111 28.0603 29.6573 28.7 28.1833C28.8887 27.7599 28.6984 27.2637 28.275 27.075C27.8516 26.8863 27.3553 27.0766 27.1666 27.5C26.7945 28.3659 25.9425 28.927 25 28.927C24.0575 28.927 23.2055 28.3659 22.8333 27.5C22.644 27.0818 22.1522 26.8956 21.7333 27.0833Z" fill="#3D3D63"/>
<path id="Shape_3" d="M21.3 22.1666C21.7602 22.1666 22.1333 21.7935 22.1333 21.3333V20.375C22.1333 19.9147 21.7602 19.5416 21.3 19.5416C20.8398 19.5416 20.4667 19.9147 20.4667 20.375V21.3333C20.4667 21.7935 20.8398 22.1666 21.3 22.1666Z" fill="#3D3D63"/>
<path id="Shape_4" d="M28.7 22.1666C29.1602 22.1666 29.5333 21.7935 29.5333 21.3333V20.375C29.5333 19.9147 29.1602 19.5416 28.7 19.5416C28.2397 19.5416 27.8666 19.9147 27.8666 20.375V21.3333C27.8666 21.7935 28.2397 22.1666 28.7 22.1666Z" fill="#3D3D63"/>
</g>
</svg>
