<svg width="53" height="53" viewBox="0 0 53 53" fill="none" xmlns="http://www.w3.org/2000/svg">
<g filter="url(#filter0_d_1804_13493)">
<circle cx="25.5" cy="23.5" r="19.5" fill="white"/>
<circle cx="25.5" cy="23.5" r="19.5" stroke="#41D481"/>
</g>
<mask id="mask0_1804_13493" style="mask-type:alpha" maskUnits="userSpaceOnUse" x="17" y="19" width="16" height="12">
<path fill-rule="evenodd" clip-rule="evenodd" d="M17 19H33V31H17V19Z" fill="white"/>
</mask>
<g mask="url(#mask0_1804_13493)">
<path fill-rule="evenodd" clip-rule="evenodd" d="M22.7564 31C22.4317 31 22.1068 30.8709 21.8591 30.6126L17.3718 25.9353C16.8761 25.4187 16.8761 24.5812 17.3718 24.0645C17.8675 23.5479 18.671 23.5479 19.1666 24.0645L22.7564 27.8062L30.8334 19.3874C31.3291 18.8709 32.1328 18.8708 32.6281 19.3874C33.124 19.9041 33.124 20.7418 32.6281 21.2583L23.6538 30.6126C23.406 30.8707 23.0812 31 22.7564 31Z" fill="#40C3A6"/>
</g>
<defs>
<filter id="filter0_d_1804_13493" x="0.5" y="0.5" width="52" height="52" filterUnits="userSpaceOnUse" color-interpolation-filters="sRGB">
<feFlood flood-opacity="0" result="BackgroundImageFix"/>
<feColorMatrix in="SourceAlpha" type="matrix" values="0 0 0 0 0 0 0 0 0 0 0 0 0 0 0 0 0 0 127 0" result="hardAlpha"/>
<feOffset dx="1" dy="3"/>
<feGaussianBlur stdDeviation="3"/>
<feColorMatrix type="matrix" values="0 0 0 0 0 0 0 0 0 0 0 0 0 0 0 0 0 0 0.0860224 0"/>
<feBlend mode="normal" in2="BackgroundImageFix" result="effect1_dropShadow_1804_13493"/>
<feBlend mode="normal" in="SourceGraphic" in2="effect1_dropShadow_1804_13493" result="shape"/>
</filter>
</defs>
</svg>
